<?xml version="1.0" encoding="UTF-8"?>
<svg version="1.1" xmlns="http://www.w3.org/2000/svg" width="149" height="148">
<path d="M0 0 C49.17 0 98.34 0 149 0 C149 48.84 149 97.68 149 148 C99.83 148 50.66 148 0 148 C0 99.16 0 50.32 0 0 Z " fill="#FDFDFD" transform="translate(0,0)"/>
<path d="M0 0 C1.69949295 -0.00618599 1.69949295 -0.00618599 3.43331909 -0.01249695 C4.67193695 -0.00171112 5.91055481 0.00907471 7.18670654 0.02018738 C9.14805038 0.01953026 9.14805038 0.01953026 11.14901733 0.01885986 C14.73143465 0.01799916 18.31355059 0.03563677 21.89589787 0.05658174 C25.6408288 0.07533618 29.38576665 0.077098 33.1307373 0.08065796 C40.22094738 0.08998206 47.31101867 0.11460074 54.40116763 0.14470643 C62.4736386 0.17823911 70.54611619 0.19473359 78.61863947 0.20979273 C95.22311546 0.24115002 111.82745189 0.29391755 128.43182373 0.36076355 C127.85506457 5.05934371 127.24211048 9.70590087 126.36932373 14.36076355 C126.19272217 15.30951355 126.01612061 16.25826355 125.83416748 17.23576355 C125.70139404 17.93701355 125.56862061 18.63826355 125.43182373 19.36076355 C124.38728027 19.38058289 123.34273682 19.40040222 122.26654053 19.42082214 C118.39178323 19.49688469 114.51740116 19.58560083 110.64300537 19.67814636 C108.96599739 19.71643348 107.28890735 19.75128686 105.61175537 19.78263855 C103.20121941 19.82829534 100.79124816 19.88628765 98.38104248 19.94670105 C97.25589485 19.96402786 97.25589485 19.96402786 96.10801697 19.98170471 C92.3705466 20.08771814 90.6175375 20.23695437 87.43182373 22.36076355 C86.11182373 26.65076355 84.79182373 30.94076355 83.43182373 35.36076355 C94.65182373 35.36076355 105.87182373 35.36076355 117.43182373 35.36076355 C116.43182373 45.36076355 116.43182373 45.36076355 114.43182373 55.36076355 C102.88182373 55.36076355 91.33182373 55.36076355 79.43182373 55.36076355 C78.77182373 59.65076355 78.11182373 63.94076355 77.43182373 68.36076355 C76.10696671 76.35837606 74.88724403 82.96626191 68.43182373 88.36076355 C66.13528673 89.50903205 64.84869206 89.4763753 62.29901123 89.4584198 C61.49334717 89.45519714 60.68768311 89.45197449 59.85760498 89.44865417 C58.59496826 89.43608582 58.59496826 89.43608582 57.30682373 89.42326355 C56.45733154 89.41875183 55.60783936 89.41424011 54.73260498 89.40959167 C52.63231464 89.39779229 50.53206043 89.37985661 48.43182373 89.36076355 C48.55186768 88.76578064 48.67191162 88.17079773 48.79559326 87.55778503 C50.89669135 77.13036927 52.98993282 66.70178456 54.99432373 56.2552948 C55.1246701 55.57692062 55.25501648 54.89854645 55.38931274 54.19961548 C56.02539123 50.88731702 56.65863519 47.5745361 57.28778076 44.26091003 C58.82307705 36.24809063 60.53708387 28.2963407 62.43182373 20.36076355 C59.32773566 20.30269312 56.22378733 20.26714441 53.11932373 20.23576355 C52.23824951 20.21900574 51.35717529 20.20224792 50.44940186 20.1849823 C49.17806396 20.17531433 49.17806396 20.17531433 47.88104248 20.16545105 C47.10075684 20.15497742 46.32047119 20.14450378 45.51654053 20.13371277 C43.12523893 20.23195496 43.12523893 20.23195496 40.43182373 22.36076355 C39.66199995 24.89261165 39.07387392 27.29081647 38.56463623 29.87638855 C38.32502167 31.0158342 38.32502167 31.0158342 38.08056641 32.17829895 C37.73925388 33.8081419 37.40346111 35.43914859 37.07263184 37.07115173 C36.55603143 39.6146645 36.02301001 42.15420935 35.48504639 44.69328308 C33.95296689 51.94171036 32.46247877 59.19753348 31.00994873 66.46232605 C30.60918488 68.38686309 30.2081706 70.31134801 29.80682373 72.23576355 C29.64971924 73.08171082 29.49261475 73.92765808 29.33074951 74.79924011 C28.11057346 80.56799439 25.790063 84.35811597 21.43182373 88.36076355 C19.13528673 89.50903205 17.84869206 89.4763753 15.29901123 89.4584198 C14.49334717 89.45519714 13.68768311 89.45197449 12.85760498 89.44865417 C11.59496826 89.43608582 11.59496826 89.43608582 10.30682373 89.42326355 C9.45733154 89.41875183 8.60783936 89.41424011 7.73260498 89.40959167 C5.63231464 89.39779229 3.53206043 89.37985661 1.43182373 89.36076355 C2.75306955 79.71095033 4.70948882 70.27273306 6.93182373 60.79826355 C9.45762869 50.05667974 9.45762869 50.05667974 11.46307373 39.2084198 C12.51239295 32.87442435 13.98815269 26.61667141 15.43182373 20.36076355 C5.86182373 20.03076355 -3.70817627 19.70076355 -13.56817627 19.36076355 C-12.34369655 5.8914866 -12.34369655 5.8914866 -7.81071854 1.75831127 C-5.00604788 0.0104463 -3.29145287 -0.00924565 0 0 Z " fill="#1B4170" transform="translate(17.56817626953125,29.639236450195313)"/>
<path d="M0 0 C1.69949295 -0.00618599 1.69949295 -0.00618599 3.43331909 -0.01249695 C4.67193695 -0.00171112 5.91055481 0.00907471 7.18670654 0.02018738 C9.14805038 0.01953026 9.14805038 0.01953026 11.14901733 0.01885986 C14.73143465 0.01799916 18.31355059 0.03563677 21.89589787 0.05658174 C25.6408288 0.07533618 29.38576665 0.077098 33.1307373 0.08065796 C40.22094738 0.08998206 47.31101867 0.11460074 54.40116763 0.14470643 C62.4736386 0.17823911 70.54611619 0.19473359 78.61863947 0.20979273 C95.22311546 0.24115002 111.82745189 0.29391755 128.43182373 0.36076355 C127.85506457 5.05934371 127.24211048 9.70590087 126.36932373 14.36076355 C126.19272217 15.30951355 126.01612061 16.25826355 125.83416748 17.23576355 C125.70139404 17.93701355 125.56862061 18.63826355 125.43182373 19.36076355 C124.38728027 19.3858197 123.34273682 19.41087585 122.26654053 19.43669128 C118.39190357 19.53084894 114.51744239 19.63104926 110.64300537 19.733078 C108.96596386 19.77639522 107.28887916 19.81807262 105.61175537 19.858078 C103.20138532 19.9158584 100.79123203 19.97953035 98.38104248 20.0443573 C97.63094406 20.06106979 96.88084564 20.07778229 96.10801697 20.09500122 C92.97504381 20.18420588 90.42473013 20.36312808 87.43182373 21.36076355 C89.35728397 13.58065184 91.47014092 7.00188542 98.43182373 2.36076355 C90.12971304 2.22111963 81.8281012 2.11482043 73.52510262 2.04989052 C69.66871484 2.018711 65.81313643 1.97648951 61.95721436 1.90812683 C58.22887209 1.84244735 54.50130318 1.80695715 50.77242661 1.79150009 C49.3571138 1.78049972 47.94183851 1.75901967 46.52685928 1.72638321 C37.35287859 1.52339632 30.6054475 2.29420062 23.43182373 8.36076355 C20.39839267 11.69214658 18.44729585 15.32981932 16.43182373 19.36076355 C6.53182373 19.36076355 -3.36817627 19.36076355 -13.56817627 19.36076355 C-12.34369655 5.8914866 -12.34369655 5.8914866 -7.81071854 1.75831127 C-5.00604788 0.0104463 -3.29145287 -0.00924565 0 0 Z " fill="#163A68" transform="translate(17.56817626953125,29.639236450195313)"/>
<path d="M0 0 C0 4.95 0 9.9 0 15 C2.97 15 5.94 15 9 15 C9 15.33 9 15.66 9 16 C8.44014404 16.02505615 7.88028809 16.0501123 7.3034668 16.07592773 C4.76458695 16.19203745 2.22606447 16.3146958 -0.3125 16.4375 C-1.19357422 16.47681641 -2.07464844 16.51613281 -2.98242188 16.55664062 C-3.82998047 16.59853516 -4.67753906 16.64042969 -5.55078125 16.68359375 C-6.72120972 16.73858032 -6.72120972 16.73858032 -7.9152832 16.79467773 C-10.19329101 16.94125263 -10.19329101 16.94125263 -13 18 C-12.43717551 11.10539999 -10.49975479 6.37781553 -5.4375 1.5625 C-3 0 -3 0 0 0 Z " fill="#07294E" transform="translate(72,32)"/>
<path d="M0 0 C0.33 0 0.66 0 1 0 C1 3.63 1 7.26 1 11 C3.64 11 6.28 11 9 11 C9 11.33 9 11.66 9 12 C7.77023438 12.07347656 7.77023438 12.07347656 6.515625 12.1484375 C5.43796875 12.22320312 4.3603125 12.29796875 3.25 12.375 C1.64898437 12.47941406 1.64898437 12.47941406 0.015625 12.5859375 C-2.80206432 12.9728223 -4.5830366 13.55686166 -7 15 C-4.24281984 4.24281984 -4.24281984 4.24281984 0 0 Z " fill="#07284E" transform="translate(112,36)"/>
</svg>
